<?xml version="1.0" standalone="no"?>
<!DOCTYPE svg PUBLIC "-//W3C//DTD SVG 20010904//EN"
 "http://www.w3.org/TR/2001/REC-SVG-20010904/DTD/svg10.dtd">
<svg version="1.0" xmlns="http://www.w3.org/2000/svg"
 width="500.000000pt" height="500.000000pt" viewBox="0 0 500.000000 500.000000"
 preserveAspectRatio="xMidYMid meet">

<g transform="translate(0.000000,500.000000) scale(0.100000,-0.100000)"
fill="#000000" stroke="none">
<path d="M1865 4046 c-188 -61 -345 -197 -438 -382 -87 -172 -105 -407 -46
-593 88 -276 341 -551 649 -706 114 -58 273 -118 355 -136 83 -17 88 -23 82
-84 -8 -76 -64 -166 -217 -349 l-72 -86 -317 0 c-233 0 -320 -3 -329 -12 -7
-7 -12 -24 -12 -40 0 -21 8 -31 32 -44 29 -15 102 -16 822 -12 575 3 797 7
812 16 28 15 35 46 17 71 -14 20 -23 21 -232 21 -120 0 -286 3 -369 7 -148 6
-152 7 -152 28 0 12 12 40 26 61 35 51 177 214 248 283 l56 55 52 -13 c81 -21
253 -98 468 -210 389 -203 818 -397 837 -378 5 6 -50 69 -237 267 -75 80 -205
218 -289 308 -85 89 -152 164 -150 166 2 3 83 -15 179 -38 96 -24 200 -46 230
-49 l55 -5 -45 9 c-104 23 -307 71 -335 80 -16 5 -86 25 -155 45 -388 110
-497 144 -555 169 -16 7 -75 30 -130 50 -125 46 -326 142 -425 202 -147 91
-424 289 -481 344 -101 101 -149 208 -149 339 0 42 3 79 6 82 3 3 17 3 31 -1
23 -6 29 -18 48 -86 26 -97 54 -152 111 -225 51 -64 68 -79 234 -192 339 -231
632 -360 1270 -558 295 -92 446 -149 559 -213 65 -37 70 -43 50 -48 -16 -5 -4
-7 34 -8 31 -1 57 1 57 3 0 13 -396 300 -743 538 -114 79 -327 226 -474 328
-146 102 -291 203 -322 224 -153 107 -243 181 -266 221 -51 85 -24 160 74 209
78 40 334 95 441 96 25 0 52 5 60 10 23 14 -41 75 -120 115 -86 43 -169 62
-323 75 -70 5 -136 14 -145 19 -9 5 -46 18 -81 30 -87 28 -193 28 -286 -3z
m230 -126 c41 -46 10 -120 -50 -120 -19 0 -39 8 -50 20 -25 28 -25 85 1 105
28 21 78 19 99 -5z m-110 -407 c13 -34 32 -75 44 -91 25 -35 193 -173 295
-241 187 -126 281 -177 716 -393 231 -115 406 -208 478 -256 62 -41 111 -77
108 -79 -2 -3 -55 13 -118 35 -244 86 -782 336 -1023 475 -233 135 -498 348
-545 438 -25 48 -36 130 -20 158 19 36 41 21 65 -46z"/>
<path d="M1287 3929 c-58 -34 -201 -226 -259 -348 -52 -109 -55 -119 -85 -231
-35 -131 -44 -387 -18 -505 43 -191 145 -373 296 -524 208 -208 417 -311 686
-340 105 -11 308 1 327 20 6 5 6 27 0 56 l-9 48 -45 2 c-82 5 -288 51 -400 91
-272 96 -512 323 -626 592 -55 130 -77 259 -71 420 8 252 70 456 198 646 52
78 54 101 6 73z"/>
<path d="M1886 1482 c-134 -1 -214 -6 -223 -13 -18 -15 -16 -33 5 -59 l17 -21
717 -4 717 -4 21 26 c23 30 24 34 8 55 -12 14 -74 16 -533 19 -286 2 -614 3
-729 1z"/>
<path d="M1897 1273 c-4 -3 -7 -19 -7 -35 0 -21 8 -33 33 -48 30 -19 51 -20
429 -20 l396 0 31 26 c33 27 39 52 19 72 -9 9 -123 12 -453 12 -243 0 -445 -3
-448 -7z"/>
</g>
</svg>
